# xmcd
#
# Track frame offsets: 
#        150
#        21156
#        42714
#        57423
#        75633
#        93734
#        113508
#        128417
#        141910
#        158177
#
# Disc length: 2479 seconds
#
# Revision: 0
# Processed by: cddbd v1.5.2PL0 Copyright (c) Steve Scherf et al.
# Submitted via: ExactAudioCopy v1.3
#
DISCID=8209ad0a
DTITLE=Shelley King - Armadillo Bootleg #1
DYEAR=2008
DGENRE=Country, Americana
TTITLE0=Open Up To Me
TTITLE1=Summer Song
TTITLE2=Carved in Stone
TTITLE3=Help is on the Way
TTITLE4=Crescent City
TTITLE5=Stormin' In The South
TTITLE6=Big Texas Stars
TTITLE7=Love's Gonna Find You
TTITLE8=Gold
TTITLE9=Better Way Blues
EXTD=
EXTT0=
EXTT1=
EXTT2=
EXTT3=
EXTT4=
EXTT5=
EXTT6=
EXTT7=
EXTT8=
EXTT9=
PLAYORDER=
